<mxfile host="app.diagrams.net" modified="2020-10-02T09:50:47.765Z" agent="5.0 (Windows NT 10.0; Win64; x64) AppleWebKit/537.36 (KHTML, like Gecko) Chrome/85.0.4183.121 Safari/537.36" etag="l4ke8H3DtadTANgBGteq" version="13.7.7" type="github">
  <diagram id="WvHL3-1CXgbxKrX7QCtm" name="Page-1">
    <mxGraphModel dx="1038" dy="580" grid="1" gridSize="10" guides="1" tooltips="1" connect="1" arrows="1" fold="1" page="1" pageScale="1" pageWidth="827" pageHeight="1169" math="0" shadow="0">
      <root>
        <mxCell id="0" />
        <mxCell id="1" parent="0" />
        <mxCell id="kr8Zruy4Q9gXAZpJByUb-36" value="" style="endArrow=none;html=1;exitX=0.437;exitY=-0.015;exitDx=0;exitDy=0;exitPerimeter=0;entryX=0.406;entryY=1.015;entryDx=0;entryDy=0;entryPerimeter=0;" parent="1" source="kr8Zruy4Q9gXAZpJByUb-30" target="kr8Zruy4Q9gXAZpJByUb-27" edge="1">
          <mxGeometry width="50" height="50" relative="1" as="geometry">
            <mxPoint x="390" y="310" as="sourcePoint" />
            <mxPoint x="440" y="260" as="targetPoint" />
          </mxGeometry>
        </mxCell>
        <mxCell id="kr8Zruy4Q9gXAZpJByUb-37" value="1" style="text;html=1;align=center;verticalAlign=middle;resizable=0;points=[];autosize=1;" parent="1" vertex="1">
          <mxGeometry x="90" y="200" width="20" height="20" as="geometry" />
        </mxCell>
        <mxCell id="kr8Zruy4Q9gXAZpJByUb-38" value="1..*" style="text;html=1;align=center;verticalAlign=middle;resizable=0;points=[];autosize=1;" parent="1" vertex="1">
          <mxGeometry x="90" y="280" width="30" height="20" as="geometry" />
        </mxCell>
        <mxCell id="kr8Zruy4Q9gXAZpJByUb-29" value="" style="shape=table;html=1;whiteSpace=wrap;startSize=0;container=1;collapsible=0;childLayout=tableLayout;" parent="1" vertex="1">
          <mxGeometry x="30" y="310" width="130" height="144" as="geometry" />
        </mxCell>
        <mxCell id="kr8Zruy4Q9gXAZpJByUb-30" value="" style="shape=partialRectangle;html=1;whiteSpace=wrap;collapsible=0;dropTarget=0;pointerEvents=0;fillColor=none;top=0;left=0;bottom=0;right=0;points=[[0,0.5],[1,0.5]];portConstraint=eastwest;" parent="kr8Zruy4Q9gXAZpJByUb-29" vertex="1">
          <mxGeometry width="130" height="40" as="geometry" />
        </mxCell>
        <mxCell id="kr8Zruy4Q9gXAZpJByUb-31" value="KhoaHoc" style="shape=partialRectangle;html=1;whiteSpace=wrap;connectable=0;overflow=hidden;fillColor=none;top=0;left=0;bottom=0;right=0;" parent="kr8Zruy4Q9gXAZpJByUb-30" vertex="1">
          <mxGeometry width="130" height="40" as="geometry" />
        </mxCell>
        <mxCell id="kr8Zruy4Q9gXAZpJByUb-32" value="" style="shape=partialRectangle;html=1;whiteSpace=wrap;collapsible=0;dropTarget=0;pointerEvents=0;fillColor=none;top=0;left=0;bottom=0;right=0;points=[[0,0.5],[1,0.5]];portConstraint=eastwest;" parent="kr8Zruy4Q9gXAZpJByUb-29" vertex="1">
          <mxGeometry y="40" width="130" height="84" as="geometry" />
        </mxCell>
        <mxCell id="kr8Zruy4Q9gXAZpJByUb-33" value="ngayBatDauKhoaHoc&lt;br&gt;giaKhoaHoc" style="shape=partialRectangle;html=1;whiteSpace=wrap;connectable=0;overflow=hidden;fillColor=none;top=0;left=0;bottom=0;right=0;" parent="kr8Zruy4Q9gXAZpJByUb-32" vertex="1">
          <mxGeometry width="130" height="84" as="geometry" />
        </mxCell>
        <mxCell id="kr8Zruy4Q9gXAZpJByUb-34" value="" style="shape=partialRectangle;html=1;whiteSpace=wrap;collapsible=0;dropTarget=0;pointerEvents=0;fillColor=none;top=0;left=0;bottom=0;right=0;points=[[0,0.5],[1,0.5]];portConstraint=eastwest;" parent="kr8Zruy4Q9gXAZpJByUb-29" vertex="1">
          <mxGeometry y="124" width="130" height="20" as="geometry" />
        </mxCell>
        <mxCell id="kr8Zruy4Q9gXAZpJByUb-35" value="" style="shape=partialRectangle;html=1;whiteSpace=wrap;connectable=0;overflow=hidden;fillColor=none;top=0;left=0;bottom=0;right=0;" parent="kr8Zruy4Q9gXAZpJByUb-34" vertex="1">
          <mxGeometry width="130" height="20" as="geometry" />
        </mxCell>
        <mxCell id="kr8Zruy4Q9gXAZpJByUb-22" value="" style="shape=table;html=1;whiteSpace=wrap;startSize=0;container=1;collapsible=0;childLayout=tableLayout;" parent="1" vertex="1">
          <mxGeometry x="30" y="40" width="130" height="130" as="geometry" />
        </mxCell>
        <mxCell id="kr8Zruy4Q9gXAZpJByUb-23" value="" style="shape=partialRectangle;html=1;whiteSpace=wrap;collapsible=0;dropTarget=0;pointerEvents=0;fillColor=none;top=0;left=0;bottom=0;right=0;points=[[0,0.5],[1,0.5]];portConstraint=eastwest;" parent="kr8Zruy4Q9gXAZpJByUb-22" vertex="1">
          <mxGeometry width="130" height="30" as="geometry" />
        </mxCell>
        <mxCell id="kr8Zruy4Q9gXAZpJByUb-24" value="ChuyenDe" style="shape=partialRectangle;html=1;whiteSpace=wrap;connectable=0;overflow=hidden;fillColor=none;top=0;left=0;bottom=0;right=0;" parent="kr8Zruy4Q9gXAZpJByUb-23" vertex="1">
          <mxGeometry width="130" height="30" as="geometry" />
        </mxCell>
        <mxCell id="kr8Zruy4Q9gXAZpJByUb-25" value="" style="shape=partialRectangle;html=1;whiteSpace=wrap;collapsible=0;dropTarget=0;pointerEvents=0;fillColor=none;top=0;left=0;bottom=0;right=0;points=[[0,0.5],[1,0.5]];portConstraint=eastwest;" parent="kr8Zruy4Q9gXAZpJByUb-22" vertex="1">
          <mxGeometry y="30" width="130" height="80" as="geometry" />
        </mxCell>
        <mxCell id="kr8Zruy4Q9gXAZpJByUb-26" value="tenChuyenDe&lt;br&gt;thÆ¡iLuong" style="shape=partialRectangle;html=1;whiteSpace=wrap;connectable=0;overflow=hidden;fillColor=none;top=0;left=0;bottom=0;right=0;" parent="kr8Zruy4Q9gXAZpJByUb-25" vertex="1">
          <mxGeometry width="130" height="80" as="geometry" />
        </mxCell>
        <mxCell id="kr8Zruy4Q9gXAZpJByUb-27" value="" style="shape=partialRectangle;html=1;whiteSpace=wrap;collapsible=0;dropTarget=0;pointerEvents=0;fillColor=none;top=0;left=0;bottom=0;right=0;points=[[0,0.5],[1,0.5]];portConstraint=eastwest;" parent="kr8Zruy4Q9gXAZpJByUb-22" vertex="1">
          <mxGeometry y="110" width="130" height="20" as="geometry" />
        </mxCell>
        <mxCell id="kr8Zruy4Q9gXAZpJByUb-28" value="" style="shape=partialRectangle;html=1;whiteSpace=wrap;connectable=0;overflow=hidden;fillColor=none;top=0;left=0;bottom=0;right=0;" parent="kr8Zruy4Q9gXAZpJByUb-27" vertex="1">
          <mxGeometry width="130" height="20" as="geometry" />
        </mxCell>
        <mxCell id="kr8Zruy4Q9gXAZpJByUb-46" value="" style="shape=table;html=1;whiteSpace=wrap;startSize=0;container=1;collapsible=0;childLayout=tableLayout;" parent="1" vertex="1">
          <mxGeometry x="280" y="328" width="130" height="132" as="geometry" />
        </mxCell>
        <mxCell id="kr8Zruy4Q9gXAZpJByUb-47" value="" style="shape=partialRectangle;html=1;whiteSpace=wrap;collapsible=0;dropTarget=0;pointerEvents=0;fillColor=none;top=0;left=0;bottom=0;right=0;points=[[0,0.5],[1,0.5]];portConstraint=eastwest;" parent="kr8Zruy4Q9gXAZpJByUb-46" vertex="1">
          <mxGeometry width="130" height="31" as="geometry" />
        </mxCell>
        <mxCell id="kr8Zruy4Q9gXAZpJByUb-48" value="GiaoVien" style="shape=partialRectangle;html=1;whiteSpace=wrap;connectable=0;overflow=hidden;fillColor=none;top=0;left=0;bottom=0;right=0;" parent="kr8Zruy4Q9gXAZpJByUb-47" vertex="1">
          <mxGeometry width="130" height="31" as="geometry" />
        </mxCell>
        <mxCell id="kr8Zruy4Q9gXAZpJByUb-49" value="" style="shape=partialRectangle;html=1;whiteSpace=wrap;collapsible=0;dropTarget=0;pointerEvents=0;fillColor=none;top=0;left=0;bottom=0;right=0;points=[[0,0.5],[1,0.5]];portConstraint=eastwest;" parent="kr8Zruy4Q9gXAZpJByUb-46" vertex="1">
          <mxGeometry y="31" width="130" height="70" as="geometry" />
        </mxCell>
        <mxCell id="kr8Zruy4Q9gXAZpJByUb-50" value="tenGiaoVien&lt;br&gt;diaChiGiaoVien" style="shape=partialRectangle;html=1;whiteSpace=wrap;connectable=0;overflow=hidden;fillColor=none;top=0;left=0;bottom=0;right=0;" parent="kr8Zruy4Q9gXAZpJByUb-49" vertex="1">
          <mxGeometry width="130" height="70" as="geometry" />
        </mxCell>
        <mxCell id="kr8Zruy4Q9gXAZpJByUb-51" value="" style="shape=partialRectangle;html=1;whiteSpace=wrap;collapsible=0;dropTarget=0;pointerEvents=0;fillColor=none;top=0;left=0;bottom=0;right=0;points=[[0,0.5],[1,0.5]];portConstraint=eastwest;" parent="kr8Zruy4Q9gXAZpJByUb-46" vertex="1">
          <mxGeometry y="101" width="130" height="31" as="geometry" />
        </mxCell>
        <mxCell id="kr8Zruy4Q9gXAZpJByUb-52" value="ghiNhanSoGioDay" style="shape=partialRectangle;html=1;whiteSpace=wrap;connectable=0;overflow=hidden;fillColor=none;top=0;left=0;bottom=0;right=0;" parent="kr8Zruy4Q9gXAZpJByUb-51" vertex="1">
          <mxGeometry width="130" height="31" as="geometry" />
        </mxCell>
        <mxCell id="kr8Zruy4Q9gXAZpJByUb-39" value="" style="shape=table;html=1;whiteSpace=wrap;startSize=0;container=1;collapsible=0;childLayout=tableLayout;" parent="1" vertex="1">
          <mxGeometry x="260" y="40" width="130" height="132" as="geometry" />
        </mxCell>
        <mxCell id="kr8Zruy4Q9gXAZpJByUb-40" value="" style="shape=partialRectangle;html=1;whiteSpace=wrap;collapsible=0;dropTarget=0;pointerEvents=0;fillColor=none;top=0;left=0;bottom=0;right=0;points=[[0,0.5],[1,0.5]];portConstraint=eastwest;" parent="kr8Zruy4Q9gXAZpJByUb-39" vertex="1">
          <mxGeometry width="130" height="31" as="geometry" />
        </mxCell>
        <mxCell id="kr8Zruy4Q9gXAZpJByUb-41" value="HocVien" style="shape=partialRectangle;html=1;whiteSpace=wrap;connectable=0;overflow=hidden;fillColor=none;top=0;left=0;bottom=0;right=0;" parent="kr8Zruy4Q9gXAZpJByUb-40" vertex="1">
          <mxGeometry width="130" height="31" as="geometry" />
        </mxCell>
        <mxCell id="kr8Zruy4Q9gXAZpJByUb-42" value="" style="shape=partialRectangle;html=1;whiteSpace=wrap;collapsible=0;dropTarget=0;pointerEvents=0;fillColor=none;top=0;left=0;bottom=0;right=0;points=[[0,0.5],[1,0.5]];portConstraint=eastwest;" parent="kr8Zruy4Q9gXAZpJByUb-39" vertex="1">
          <mxGeometry y="31" width="130" height="79" as="geometry" />
        </mxCell>
        <mxCell id="kr8Zruy4Q9gXAZpJByUb-43" value="tenHocVien&lt;br&gt;diaChiHocVien" style="shape=partialRectangle;html=1;whiteSpace=wrap;connectable=0;overflow=hidden;fillColor=none;top=0;left=0;bottom=0;right=0;" parent="kr8Zruy4Q9gXAZpJByUb-42" vertex="1">
          <mxGeometry width="130" height="79" as="geometry" />
        </mxCell>
        <mxCell id="kr8Zruy4Q9gXAZpJByUb-44" value="" style="shape=partialRectangle;html=1;whiteSpace=wrap;collapsible=0;dropTarget=0;pointerEvents=0;fillColor=none;top=0;left=0;bottom=0;right=0;points=[[0,0.5],[1,0.5]];portConstraint=eastwest;" parent="kr8Zruy4Q9gXAZpJByUb-39" vertex="1">
          <mxGeometry y="110" width="130" height="22" as="geometry" />
        </mxCell>
        <mxCell id="kr8Zruy4Q9gXAZpJByUb-45" value="" style="shape=partialRectangle;html=1;whiteSpace=wrap;connectable=0;overflow=hidden;fillColor=none;top=0;left=0;bottom=0;right=0;" parent="kr8Zruy4Q9gXAZpJByUb-44" vertex="1">
          <mxGeometry width="130" height="22" as="geometry" />
        </mxCell>
        <mxCell id="kr8Zruy4Q9gXAZpJByUb-61" value="" style="shape=table;html=1;whiteSpace=wrap;startSize=0;container=1;collapsible=0;childLayout=tableLayout;" parent="1" vertex="1">
          <mxGeometry x="610" y="15" width="170" height="157" as="geometry" />
        </mxCell>
        <mxCell id="kr8Zruy4Q9gXAZpJByUb-62" value="" style="shape=partialRectangle;html=1;whiteSpace=wrap;collapsible=0;dropTarget=0;pointerEvents=0;fillColor=none;top=0;left=0;bottom=0;right=0;points=[[0,0.5],[1,0.5]];portConstraint=eastwest;" parent="kr8Zruy4Q9gXAZpJByUb-61" vertex="1">
          <mxGeometry width="170" height="40" as="geometry" />
        </mxCell>
        <mxCell id="kr8Zruy4Q9gXAZpJByUb-63" value="HocVienLaNhanVienCongTy" style="shape=partialRectangle;html=1;whiteSpace=wrap;connectable=0;overflow=hidden;fillColor=none;top=0;left=0;bottom=0;right=0;" parent="kr8Zruy4Q9gXAZpJByUb-62" vertex="1">
          <mxGeometry width="170" height="40" as="geometry" />
        </mxCell>
        <mxCell id="kr8Zruy4Q9gXAZpJByUb-64" value="" style="shape=partialRectangle;html=1;whiteSpace=wrap;collapsible=0;dropTarget=0;pointerEvents=0;fillColor=none;top=0;left=0;bottom=0;right=0;points=[[0,0.5],[1,0.5]];portConstraint=eastwest;" parent="kr8Zruy4Q9gXAZpJByUb-61" vertex="1">
          <mxGeometry y="40" width="170" height="87" as="geometry" />
        </mxCell>
        <mxCell id="kr8Zruy4Q9gXAZpJByUb-65" value="tenHocVien&lt;br&gt;diaChiHocVien&lt;br&gt;tenCongTy&lt;br&gt;diaChiCongTy" style="shape=partialRectangle;html=1;whiteSpace=wrap;connectable=0;overflow=hidden;fillColor=none;top=0;left=0;bottom=0;right=0;" parent="kr8Zruy4Q9gXAZpJByUb-64" vertex="1">
          <mxGeometry width="170" height="87" as="geometry" />
        </mxCell>
        <mxCell id="kr8Zruy4Q9gXAZpJByUb-66" value="" style="shape=partialRectangle;html=1;whiteSpace=wrap;collapsible=0;dropTarget=0;pointerEvents=0;fillColor=none;top=0;left=0;bottom=0;right=0;points=[[0,0.5],[1,0.5]];portConstraint=eastwest;" parent="kr8Zruy4Q9gXAZpJByUb-61" vertex="1">
          <mxGeometry y="127" width="170" height="30" as="geometry" />
        </mxCell>
        <mxCell id="kr8Zruy4Q9gXAZpJByUb-67" value="" style="shape=partialRectangle;html=1;whiteSpace=wrap;connectable=0;overflow=hidden;fillColor=none;top=0;left=0;bottom=0;right=0;" parent="kr8Zruy4Q9gXAZpJByUb-66" vertex="1">
          <mxGeometry width="170" height="30" as="geometry" />
        </mxCell>
        <mxCell id="kr8Zruy4Q9gXAZpJByUb-54" value="" style="shape=table;html=1;whiteSpace=wrap;startSize=0;container=1;collapsible=0;childLayout=tableLayout;" parent="1" vertex="1">
          <mxGeometry x="610" y="235" width="140" height="110" as="geometry" />
        </mxCell>
        <mxCell id="kr8Zruy4Q9gXAZpJByUb-55" value="" style="shape=partialRectangle;html=1;whiteSpace=wrap;collapsible=0;dropTarget=0;pointerEvents=0;fillColor=none;top=0;left=0;bottom=0;right=0;points=[[0,0.5],[1,0.5]];portConstraint=eastwest;" parent="kr8Zruy4Q9gXAZpJByUb-54" vertex="1">
          <mxGeometry width="140" height="30" as="geometry" />
        </mxCell>
        <mxCell id="kr8Zruy4Q9gXAZpJByUb-56" value="HocVienTuDo" style="shape=partialRectangle;html=1;whiteSpace=wrap;connectable=0;overflow=hidden;fillColor=none;top=0;left=0;bottom=0;right=0;" parent="kr8Zruy4Q9gXAZpJByUb-55" vertex="1">
          <mxGeometry width="140" height="30" as="geometry" />
        </mxCell>
        <mxCell id="kr8Zruy4Q9gXAZpJByUb-57" value="" style="shape=partialRectangle;html=1;whiteSpace=wrap;collapsible=0;dropTarget=0;pointerEvents=0;fillColor=none;top=0;left=0;bottom=0;right=0;points=[[0,0.5],[1,0.5]];portConstraint=eastwest;" parent="kr8Zruy4Q9gXAZpJByUb-54" vertex="1">
          <mxGeometry y="30" width="140" height="47" as="geometry" />
        </mxCell>
        <mxCell id="kr8Zruy4Q9gXAZpJByUb-58" value="tenHocVien&lt;br&gt;diaChiHocVien" style="shape=partialRectangle;html=1;whiteSpace=wrap;connectable=0;overflow=hidden;fillColor=none;top=0;left=0;bottom=0;right=0;" parent="kr8Zruy4Q9gXAZpJByUb-57" vertex="1">
          <mxGeometry width="140" height="47" as="geometry" />
        </mxCell>
        <mxCell id="kr8Zruy4Q9gXAZpJByUb-59" value="" style="shape=partialRectangle;html=1;whiteSpace=wrap;collapsible=0;dropTarget=0;pointerEvents=0;fillColor=none;top=0;left=0;bottom=0;right=0;points=[[0,0.5],[1,0.5]];portConstraint=eastwest;" parent="kr8Zruy4Q9gXAZpJByUb-54" vertex="1">
          <mxGeometry y="77" width="140" height="33" as="geometry" />
        </mxCell>
        <mxCell id="kr8Zruy4Q9gXAZpJByUb-60" value="" style="shape=partialRectangle;html=1;whiteSpace=wrap;connectable=0;overflow=hidden;fillColor=none;top=0;left=0;bottom=0;right=0;" parent="kr8Zruy4Q9gXAZpJByUb-59" vertex="1">
          <mxGeometry width="140" height="33" as="geometry" />
        </mxCell>
        <mxCell id="kr8Zruy4Q9gXAZpJByUb-68" value="" style="endArrow=none;html=1;entryX=0;entryY=0.5;entryDx=0;entryDy=0;exitX=1;exitY=0.5;exitDx=0;exitDy=0;" parent="1" source="kr8Zruy4Q9gXAZpJByUb-32" target="kr8Zruy4Q9gXAZpJByUb-49" edge="1">
          <mxGeometry width="50" height="50" relative="1" as="geometry">
            <mxPoint x="200" y="440" as="sourcePoint" />
            <mxPoint x="250" y="390" as="targetPoint" />
          </mxGeometry>
        </mxCell>
        <mxCell id="kr8Zruy4Q9gXAZpJByUb-69" value="1" style="text;html=1;align=center;verticalAlign=middle;resizable=0;points=[];autosize=1;" parent="1" vertex="1">
          <mxGeometry x="170" y="360" width="20" height="20" as="geometry" />
        </mxCell>
        <mxCell id="kr8Zruy4Q9gXAZpJByUb-70" value="1..*" style="text;html=1;align=center;verticalAlign=middle;resizable=0;points=[];autosize=1;" parent="1" vertex="1">
          <mxGeometry x="240" y="360" width="30" height="20" as="geometry" />
        </mxCell>
        <mxCell id="kr8Zruy4Q9gXAZpJByUb-71" value="" style="endArrow=none;html=1;entryX=-0.019;entryY=0.285;entryDx=0;entryDy=0;entryPerimeter=0;" parent="1" target="kr8Zruy4Q9gXAZpJByUb-64" edge="1">
          <mxGeometry width="50" height="50" relative="1" as="geometry">
            <mxPoint x="607" y="290" as="sourcePoint" />
            <mxPoint x="590" y="70" as="targetPoint" />
            <Array as="points">
              <mxPoint x="550" y="290" />
              <mxPoint x="550" y="80" />
            </Array>
          </mxGeometry>
        </mxCell>
        <mxCell id="kr8Zruy4Q9gXAZpJByUb-72" value="" style="endArrow=classic;html=1;entryX=1;entryY=0.5;entryDx=0;entryDy=0;" parent="1" target="kr8Zruy4Q9gXAZpJByUb-42" edge="1">
          <mxGeometry width="50" height="50" relative="1" as="geometry">
            <mxPoint x="550" y="160" as="sourcePoint" />
            <mxPoint x="440" y="220" as="targetPoint" />
          </mxGeometry>
        </mxCell>
        <mxCell id="kr8Zruy4Q9gXAZpJByUb-73" value="" style="endArrow=none;html=1;exitX=1;exitY=0.5;exitDx=0;exitDy=0;" parent="1" source="kr8Zruy4Q9gXAZpJByUb-30" target="kr8Zruy4Q9gXAZpJByUb-44" edge="1">
          <mxGeometry width="50" height="50" relative="1" as="geometry">
            <mxPoint x="390" y="270" as="sourcePoint" />
            <mxPoint x="440" y="220" as="targetPoint" />
          </mxGeometry>
        </mxCell>
        <mxCell id="kr8Zruy4Q9gXAZpJByUb-74" value="1" style="text;html=1;align=center;verticalAlign=middle;resizable=0;points=[];autosize=1;" parent="1" vertex="1">
          <mxGeometry x="160" y="280" width="20" height="20" as="geometry" />
        </mxCell>
        <mxCell id="kr8Zruy4Q9gXAZpJByUb-75" value="1..*" style="text;html=1;align=center;verticalAlign=middle;resizable=0;points=[];autosize=1;" parent="1" vertex="1">
          <mxGeometry x="250" y="180" width="30" height="20" as="geometry" />
        </mxCell>
      </root>
    </mxGraphModel>
  </diagram>
</mxfile>
